<svg class="icon" viewBox="0 0 1024 1024" version="1.1" xmlns="http://www.w3.org/2000/svg"
     width="128" height="128">
    <path d="M927.971556 367.445333v499.712a124.643556 124.643556 0 0 1-124.529778 124.871111H252.416a124.643556 124.643556 0 0 1-124.529778-124.871111V156.899556A124.643556 124.643556 0 0 1 252.416 32.028444h340.935111a69.802667 69.802667 0 0 1 21.333333 3.299556 54.272 54.272 0 0 1 8.874667 3.413333 68.608 68.608 0 0 1 21.333333 14.677334l261.688889 262.371555a68.664889 68.664889 0 0 1 14.620445 21.390222 65.820444 65.820444 0 0 1 4.323555 12.174223 69.006222 69.006222 0 0 1 2.446223 18.090666z"
          fill="#6379E8"/>
    <path d="M250.083556 155.136m31.232 0l115.541333 0q31.232 0 31.232 31.232l0-0.056889q0 31.232-31.232 31.232l-115.541333 0q-31.232 0-31.232-31.232l0 0.056889q0-31.232 31.232-31.232Z"
          fill="#FFFFFF"/>
    <path d="M312.661333 712.704a133.063111 133.063111 0 0 1-15.758222 71.224889 50.517333 50.517333 0 0 1-45.226667 24.803555 49.948444 49.948444 0 0 1-24.177777-6.030222v-47.217778a29.752889 29.752889 0 0 0 21.845333 9.841778q26.282667 0.170667 26.282667-54.442666v-140.401778h36.807111z m30.321778 32.938667a62.179556 62.179556 0 0 0 47.388445 23.438222 32.199111 32.199111 0 0 0 22.755555-7.054222 23.552 23.552 0 0 0 7.452445-17.92 30.492444 30.492444 0 0 0-6.030223-17.976889 109.112889 109.112889 0 0 0-31.744-22.755556 73.955556 73.955556 0 0 1-40.448-67.697778 68.266667 68.266667 0 0 1 18.261334-50.858666 66.161778 66.161778 0 0 1 48.526222-18.090667 91.420444 91.420444 0 0 1 42.496 8.931556v46.876444a58.140444 58.140444 0 0 0-40.675556-16.042667 33.052444 33.052444 0 0 0-21.560889 6.769778 22.243556 22.243556 0 0 0-8.135111 18.090667 27.704889 27.704889 0 0 0 5.688889 16.725333 101.717333 101.717333 0 0 0 27.534222 20.650667 94.321778 94.321778 0 0 1 35.384889 31.573333 77.596444 77.596444 0 0 1 9.614223 39.822222 69.802667 69.802667 0 0 1-17.635556 51.2 67.527111 67.527111 0 0 1-50.062222 17.692445 84.138667 84.138667 0 0 1-48.583111-13.027556z m134.428445-55.011556a155.249778 155.249778 0 0 1 23.665777-89.543111 72.647111 72.647111 0 0 1 62.577778-34.531556 68.949333 68.949333 0 0 1 59.562667 33.393778 150.357333 150.357333 0 0 1 22.755555 85.845334 153.6 153.6 0 0 1-23.324444 88.803555 71.566222 71.566222 0 0 1-61.496889 34.133333 70.712889 70.712889 0 0 1-60.302222-33.052444 144.725333 144.725333 0 0 1-23.438222-85.048889z m38.684444-2.730667a113.777778 113.777778 0 0 0 12.174222 55.864889 37.034667 37.034667 0 0 0 33.336889 21.674667 37.262222 37.262222 0 0 0 33.678222-20.764444 111.217778 111.217778 0 0 0 12.060445-55.864889 120.32 120.32 0 0 0-11.719111-57.799111 36.238222 36.238222 0 0 0-32.995556-21.219556 37.888 37.888 0 0 0-34.133333 21.788444 112.924444 112.924444 0 0 0-12.401778 56.32z m312.433778 116.679112h-37.660445l-73.102222-151.495112a199.566222 199.566222 0 0 1-8.248889-19.057777h-0.568889q1.024 12.117333 1.024 37.319111v133.176889h-34.929777v-234.040889h40.106666l70.485334 147.228444q6.997333 14.677333 8.590222 18.602667h0.568889a300.714667 300.714667 0 0 1-1.137778-32.369778v-133.461333h34.872889z"
          fill="#FFFFFF"/>
    <path d="M925.696 349.354667h-217.486222a93.525333 93.525333 0 0 1-93.411556-93.639111V35.328a55.239111 55.239111 0 0 1 8.874667 3.413333 68.608 68.608 0 0 1 21.333333 14.677334l261.688889 262.371555a68.266667 68.266667 0 0 1 14.620445 21.390222 65.991111 65.991111 0 0 1 4.380444 12.174223z"
          fill="#FFF3FB" opacity=".4"/>
</svg>